# xmcd
#
# Track frame offsets: 
#        150
#        15197
#        27139
#        41209
#        54442
#        67786
#        81236
#        92738
#        103891
#        112958
#        124232
#
# Disc length: 1846 seconds
#
# Revision: 0
# Processed by: cddbd v1.5.1PL0 Copyright (c) Steve Scherf et al.
# Submitted via: ExactAudioCopy v0.90b4
#
DISCID=8307340b
DTITLE=Throw Some Dirt On Me - Rae Spoon
DYEAR=2003
DGENRE=Country
TTITLE0=All Washed Up
TTITLE1=Throw Some Dirt On Me
TTITLE2=Chicken Factory
TTITLE3=Dust Bowl
TTITLE4=Tin Shack
TTITLE5=Hoe Down
TTITLE6=Belly Up
TTITLE7=Crop Duster
TTITLE8=Box Car
TTITLE9=Oil Rigs(No Rest)
TTITLE10=John Henry (vs. The Condo Assocation)
EXTD=
EXTT0=
EXTT1=
EXTT2=
EXTT3=
EXTT4=
EXTT5=
EXTT6=
EXTT7=
EXTT8=
EXTT9=
EXTT10=
PLAYORDER=
